<?xml version="1.0" encoding="UTF-8" standalone="no"?>
<!DOCTYPE svg PUBLIC "-//W3C//DTD SVG 1.1//EN"
 "http://www.w3.org/Graphics/SVG/1.1/DTD/svg11.dtd">
<!-- Generated by graphviz version 14.1.5 (20260411.2331)
 -->
<!-- Title: ArchContext Pages: 1 -->
<svg width="772pt" height="136pt"
 viewBox="0.00 0.00 772.00 136.00" xmlns="http://www.w3.org/2000/svg" xmlns:xlink="http://www.w3.org/1999/xlink">
<g id="graph0" class="graph" transform="scale(1 1) rotate(0) translate(4 132)">
<title>ArchContext</title>
<polygon fill="#f3f7ff" stroke="none" points="-4,4 -4,-132 768.25,-132 768.25,4 -4,4"/>
<!-- user -->
<g id="node1" class="node">
<title>user</title>
<path fill="#d9eeff" stroke="#365a7c" stroke-width="1.4" d="M420.12,-128C420.12,-128 381.62,-128 381.62,-128 375.62,-128 369.62,-122 369.62,-116 369.62,-116 369.62,-104 369.62,-104 369.62,-98 375.62,-92 381.62,-92 381.62,-92 420.12,-92 420.12,-92 426.12,-92 432.12,-98 432.12,-104 432.12,-104 432.12,-116 432.12,-116 432.12,-122 426.12,-128 420.12,-128"/>
<text xml:space="preserve" text-anchor="middle" x="400.88" y="-104.2" font-family="Helvetica,sans-Serif" font-size="14.00">Usuario</text>
</g>
<!-- webmining -->
<g id="node2" class="node">
<title>webmining</title>
<path fill="#8fd3ff" stroke="#1a76a2" stroke-width="1.4" d="M752.25,-101C752.25,-101 638.75,-101 638.75,-101 632.75,-101 626.75,-95 626.75,-89 626.75,-89 626.75,-77 626.75,-77 626.75,-71 632.75,-65 638.75,-65 638.75,-65 752.25,-65 752.25,-65 758.25,-65 764.25,-71 764.25,-77 764.25,-77 764.25,-89 764.25,-89 764.25,-95 758.25,-101 752.25,-101"/>
<text xml:space="preserve" text-anchor="middle" x="695.5" y="-77.2" font-family="Helvetica,sans-Serif" font-size="14.00">Sistema Webmining</text>
</g>
<!-- user&#45;&gt;webmining -->
<g id="edge1" class="edge">
<title>user&#45;&gt;webmining</title>
<path fill="none" stroke="#4b6281" d="M432.48,-109.63C472.95,-108.85 546.43,-106.44 608.75,-99 611.43,-98.68 614.15,-98.33 616.89,-97.95"/>
<polygon fill="#4b6281" stroke="#4b6281" points="617.28,-100.72 624.79,-96.78 616.47,-95.18 617.28,-100.72"/>
<text xml:space="preserve" text-anchor="middle" x="548.75" y="-109.52" font-family="Helvetica,sans-Serif" font-size="14.00">configura y consulta</text>
</g>
<!-- webmining&#45;&gt;user -->
<g id="edge5" class="edge">
<title>webmining&#45;&gt;user</title>
<path fill="none" stroke="#4b6281" d="M626.39,-75.89C586.09,-73.2 534.2,-72.37 488.75,-80 472.85,-82.67 455.97,-87.9 441.36,-93.26"/>
<polygon fill="#4b6281" stroke="#4b6281" points="440.48,-90.6 434,-96.06 442.47,-95.83 440.48,-90.6"/>
<text xml:space="preserve" text-anchor="middle" x="548.75" y="-81.7" font-family="Helvetica,sans-Serif" font-size="14.00">ruta + reportes</text>
</g>
<!-- google_places -->
<g id="node3" class="node">
<title>google_places</title>
<path fill="#ffe5b8" stroke="#365a7c" stroke-width="1.4" d="M144.62,-90C144.62,-90 38.62,-90 38.62,-90 32.63,-90 26.62,-84 26.62,-78 26.62,-78 26.62,-66 26.62,-66 26.62,-60 32.62,-54 38.62,-54 38.62,-54 144.62,-54 144.62,-54 150.62,-54 156.62,-60 156.62,-66 156.62,-66 156.62,-78 156.62,-78 156.62,-84 150.62,-90 144.62,-90"/>
<text xml:space="preserve" text-anchor="middle" x="91.62" y="-66.2" font-family="Helvetica,sans-Serif" font-size="14.00">Google Places API</text>
</g>
<!-- data_repo -->
<g id="node5" class="node">
<title>data_repo</title>
<polygon fill="#e9edff" stroke="#365a7c" stroke-width="1.4" points="470.75,-64 467.75,-68 446.75,-68 443.75,-64 331,-64 331,-26 470.75,-26 470.75,-64"/>
<text xml:space="preserve" text-anchor="middle" x="400.88" y="-46.7" font-family="Helvetica,sans-Serif" font-size="14.00">Repositorio de datos</text>
<text xml:space="preserve" text-anchor="middle" x="400.88" y="-31.7" font-family="Helvetica,sans-Serif" font-size="14.00">por depot</text>
</g>
<!-- google_places&#45;&gt;data_repo -->
<g id="edge2" class="edge">
<title>google_places&#45;&gt;data_repo</title>
<path fill="none" stroke="#4b6281" d="M157.03,-66.34C204.83,-62.14 270.25,-56.39 321.15,-51.92"/>
<polygon fill="#4b6281" stroke="#4b6281" points="321.24,-54.72 328.97,-51.23 320.75,-49.14 321.24,-54.72"/>
<text xml:space="preserve" text-anchor="middle" x="257.12" y="-63.41" font-family="Helvetica,sans-Serif" font-size="14.00">POIs</text>
</g>
<!-- google_matrix -->
<g id="node4" class="node">
<title>google_matrix</title>
<path fill="#ffddb0" stroke="#365a7c" stroke-width="1.4" d="M171.25,-36C171.25,-36 12,-36 12,-36 6,-36 0,-30 0,-24 0,-24 0,-12 0,-12 0,-6 6,0 12,0 12,0 171.25,0 171.25,0 177.25,0 183.25,-6 183.25,-12 183.25,-12 183.25,-24 183.25,-24 183.25,-30 177.25,-36 171.25,-36"/>
<text xml:space="preserve" text-anchor="middle" x="91.62" y="-12.2" font-family="Helvetica,sans-Serif" font-size="14.00">Google Distance Matrix API</text>
</g>
<!-- google_matrix&#45;&gt;data_repo -->
<g id="edge3" class="edge">
<title>google_matrix&#45;&gt;data_repo</title>
<path fill="none" stroke="#4b6281" d="M183.86,-23.53C223.57,-26.21 270.63,-29.78 313,-34 315.78,-34.28 318.62,-34.57 321.48,-34.88"/>
<polygon fill="#4b6281" stroke="#4b6281" points="320.92,-37.63 329.18,-35.73 321.53,-32.07 320.92,-37.63"/>
<text xml:space="preserve" text-anchor="middle" x="257.12" y="-35.7" font-family="Helvetica,sans-Serif" font-size="14.00">distancias/tiempos</text>
</g>
<!-- data_repo&#45;&gt;webmining -->
<g id="edge4" class="edge">
<title>data_repo&#45;&gt;webmining</title>
<path fill="none" stroke="#4b6281" d="M471.36,-43.75C511.77,-44.17 563.48,-46.67 608.75,-55 617.76,-56.66 627.13,-59.02 636.23,-61.68"/>
<polygon fill="#4b6281" stroke="#4b6281" points="635.29,-64.32 643.76,-63.98 636.92,-58.96 635.29,-64.32"/>
<text xml:space="preserve" text-anchor="middle" x="548.75" y="-56.7" font-family="Helvetica,sans-Serif" font-size="14.00">datasets operativos</text>
</g>
</g>
</svg>
