<?xml version="1.0" encoding="UTF-8" standalone="no"?>
<!DOCTYPE svg PUBLIC "-//W3C//DTD SVG 1.1//EN"
 "http://www.w3.org/Graphics/SVG/1.1/DTD/svg11.dtd">
<!-- Generated by graphviz version 14.1.5 (20260411.2331)
 -->
<!-- Title: DER_Webmining Pages: 1 -->
<svg width="1058pt" height="302pt"
 viewBox="0.00 0.00 1058.00 302.00" xmlns="http://www.w3.org/2000/svg" xmlns:xlink="http://www.w3.org/1999/xlink">
<g id="graph0" class="graph" transform="scale(1 1) rotate(0) translate(4 298.38)">
<title>DER_Webmining</title>
<polygon fill="#f7faff" stroke="none" points="-4,4 -4,-298.38 1053.5,-298.38 1053.5,4 -4,4"/>
<!-- depot -->
<g id="node1" class="node">
<title>depot</title>
<path fill="#ddeeff" stroke="#36597c" stroke-width="1.2" d="M12,-136.38C12,-136.38 120.5,-136.38 120.5,-136.38 126.5,-136.38 132.5,-142.38 132.5,-148.38 132.5,-148.38 132.5,-166.12 132.5,-166.12 132.5,-172.12 126.5,-178.12 120.5,-178.12 120.5,-178.12 12,-178.12 12,-178.12 6,-178.12 0,-172.12 0,-166.12 0,-166.12 0,-148.38 0,-148.38 0,-142.38 6,-136.38 12,-136.38"/>
<text xml:space="preserve" text-anchor="middle" x="21.12" y="-153.38" font-family="Helvetica,sans-Serif" font-size="10.00">Depot</text>
<polyline fill="none" stroke="#36597c" stroke-width="1.2" points="42.25,-136.38 42.25,-178.12"/>
<text xml:space="preserve" text-anchor="start" x="50.25" y="-164.62" font-family="Helvetica,sans-Serif" font-size="10.00">+ id_depot : int</text>
<text xml:space="preserve" text-anchor="start" x="50.25" y="-153.38" font-family="Helvetica,sans-Serif" font-size="10.00">+ nombre : string</text>
<text xml:space="preserve" text-anchor="start" x="50.25" y="-142.12" font-family="Helvetica,sans-Serif" font-size="10.00">+ zona : string</text>
</g>
<!-- nodo -->
<g id="node2" class="node">
<title>nodo</title>
<path fill="#d8f4ff" stroke="#36597c" stroke-width="1.2" d="M424.75,-184.62C424.75,-184.62 578.25,-184.62 578.25,-184.62 584.25,-184.62 590.25,-190.62 590.25,-196.62 590.25,-196.62 590.25,-281.88 590.25,-281.88 590.25,-287.88 584.25,-293.88 578.25,-293.88 578.25,-293.88 424.75,-293.88 424.75,-293.88 418.75,-293.88 412.75,-287.88 412.75,-281.88 412.75,-281.88 412.75,-196.62 412.75,-196.62 412.75,-190.62 418.75,-184.62 424.75,-184.62"/>
<text xml:space="preserve" text-anchor="middle" x="451.12" y="-235.38" font-family="Helvetica,sans-Serif" font-size="10.00">NodoTuristico</text>
<polyline fill="none" stroke="#36597c" stroke-width="1.2" points="489.5,-184.62 489.5,-293.88"/>
<text xml:space="preserve" text-anchor="start" x="497.5" y="-280.38" font-family="Helvetica,sans-Serif" font-size="10.00">+ id_nodo : int</text>
<text xml:space="preserve" text-anchor="start" x="497.5" y="-269.12" font-family="Helvetica,sans-Serif" font-size="10.00">+ id_depot : int</text>
<text xml:space="preserve" text-anchor="start" x="497.5" y="-257.88" font-family="Helvetica,sans-Serif" font-size="10.00">+ nombre : string</text>
<text xml:space="preserve" text-anchor="start" x="497.5" y="-246.62" font-family="Helvetica,sans-Serif" font-size="10.00">+ tipo : string</text>
<text xml:space="preserve" text-anchor="start" x="497.5" y="-235.38" font-family="Helvetica,sans-Serif" font-size="10.00">+ puntaje : float</text>
<text xml:space="preserve" text-anchor="start" x="497.5" y="-224.12" font-family="Helvetica,sans-Serif" font-size="10.00">+ lat : float</text>
<text xml:space="preserve" text-anchor="start" x="497.5" y="-212.88" font-family="Helvetica,sans-Serif" font-size="10.00">+ lon : float</text>
<text xml:space="preserve" text-anchor="start" x="497.5" y="-201.62" font-family="Helvetica,sans-Serif" font-size="10.00">+ apertura_min : int</text>
<text xml:space="preserve" text-anchor="start" x="497.5" y="-190.38" font-family="Helvetica,sans-Serif" font-size="10.00">+ cierre_min : int</text>
</g>
<!-- depot&#45;&gt;nodo -->
<g id="edge1" class="edge">
<title>depot&#45;&gt;nodo</title>
<path fill="none" stroke="#4e6584" d="M92.37,-178.43C114.56,-195.71 148.61,-218.9 182.75,-229.25 254.23,-250.93 338.95,-252.48 402.92,-249.13"/>
<polygon fill="#4e6584" stroke="#4e6584" points="402.87,-251.93 410.69,-248.68 402.55,-246.34 402.87,-251.93"/>
<text xml:space="preserve" text-anchor="middle" x="157.62" y="-223.12" font-family="Helvetica,sans-Serif" font-size="9.00">1:N</text>
</g>
<!-- dist -->
<g id="node3" class="node">
<title>dist</title>
<path fill="#e2fce2" stroke="#36597c" stroke-width="1.2" d="M203.38,-166.75C203.38,-166.75 374.12,-166.75 374.12,-166.75 380.12,-166.75 386.12,-172.75 386.12,-178.75 386.12,-178.75 386.12,-207.75 386.12,-207.75 386.12,-213.75 380.12,-219.75 374.12,-219.75 374.12,-219.75 203.38,-219.75 203.38,-219.75 197.38,-219.75 191.38,-213.75 191.38,-207.75 191.38,-207.75 191.38,-178.75 191.38,-178.75 191.38,-172.75 197.38,-166.75 203.38,-166.75"/>
<text xml:space="preserve" text-anchor="middle" x="236.12" y="-189.38" font-family="Helvetica,sans-Serif" font-size="10.00">MatrizDistancias</text>
<polyline fill="none" stroke="#36597c" stroke-width="1.2" points="280.88,-166.75 280.88,-219.75"/>
<text xml:space="preserve" text-anchor="start" x="288.88" y="-206.25" font-family="Helvetica,sans-Serif" font-size="10.00">+ id_depot : int</text>
<text xml:space="preserve" text-anchor="start" x="288.88" y="-195" font-family="Helvetica,sans-Serif" font-size="10.00">+ origen_id : int</text>
<text xml:space="preserve" text-anchor="start" x="288.88" y="-183.75" font-family="Helvetica,sans-Serif" font-size="10.00">+ destino_id : int</text>
<text xml:space="preserve" text-anchor="start" x="288.88" y="-172.5" font-family="Helvetica,sans-Serif" font-size="10.00">+ distancia_m : float</text>
</g>
<!-- depot&#45;&gt;dist -->
<g id="edge2" class="edge">
<title>depot&#45;&gt;dist</title>
<path fill="none" stroke="#4e6584" d="M132.81,-167.95C148.23,-170.47 165.06,-173.22 181.76,-175.95"/>
<polygon fill="#4e6584" stroke="#4e6584" points="181.18,-178.69 189.52,-177.21 182.08,-173.16 181.18,-178.69"/>
<text xml:space="preserve" text-anchor="middle" x="157.62" y="-174.29" font-family="Helvetica,sans-Serif" font-size="9.00">1:N</text>
</g>
<!-- tiempo -->
<g id="node4" class="node">
<title>tiempo</title>
<path fill="#eafceb" stroke="#36597c" stroke-width="1.2" d="M214.25,-94.75C214.25,-94.75 363.25,-94.75 363.25,-94.75 369.25,-94.75 375.25,-100.75 375.25,-106.75 375.25,-106.75 375.25,-135.75 375.25,-135.75 375.25,-141.75 369.25,-147.75 363.25,-147.75 363.25,-147.75 214.25,-147.75 214.25,-147.75 208.25,-147.75 202.25,-141.75 202.25,-135.75 202.25,-135.75 202.25,-106.75 202.25,-106.75 202.25,-100.75 208.25,-94.75 214.25,-94.75"/>
<text xml:space="preserve" text-anchor="middle" x="242.5" y="-117.38" font-family="Helvetica,sans-Serif" font-size="10.00">MatrizTiempos</text>
<polyline fill="none" stroke="#36597c" stroke-width="1.2" points="282.75,-94.75 282.75,-147.75"/>
<text xml:space="preserve" text-anchor="start" x="290.75" y="-134.25" font-family="Helvetica,sans-Serif" font-size="10.00">+ id_depot : int</text>
<text xml:space="preserve" text-anchor="start" x="290.75" y="-123" font-family="Helvetica,sans-Serif" font-size="10.00">+ origen_id : int</text>
<text xml:space="preserve" text-anchor="start" x="290.75" y="-111.75" font-family="Helvetica,sans-Serif" font-size="10.00">+ destino_id : int</text>
<text xml:space="preserve" text-anchor="start" x="290.75" y="-100.5" font-family="Helvetica,sans-Serif" font-size="10.00">+ tiempo_s : float</text>
</g>
<!-- depot&#45;&gt;tiempo -->
<g id="edge3" class="edge">
<title>depot&#45;&gt;tiempo</title>
<path fill="none" stroke="#4e6584" d="M132.81,-146.55C151.64,-143.47 172.55,-140.06 192.77,-136.76"/>
<polygon fill="#4e6584" stroke="#4e6584" points="193.06,-139.55 200.51,-135.49 192.16,-134.02 193.06,-139.55"/>
<text xml:space="preserve" text-anchor="middle" x="157.62" y="-144.73" font-family="Helvetica,sans-Serif" font-size="9.00">1:N</text>
</g>
<!-- cfg -->
<g id="node5" class="node">
<title>cfg</title>
<path fill="#fff0c9" stroke="#36597c" stroke-width="1.2" d="M194.75,-0.5C194.75,-0.5 382.75,-0.5 382.75,-0.5 388.75,-0.5 394.75,-6.5 394.75,-12.5 394.75,-12.5 394.75,-64 394.75,-64 394.75,-70 388.75,-76 382.75,-76 382.75,-76 194.75,-76 194.75,-76 188.75,-76 182.75,-70 182.75,-64 182.75,-64 182.75,-12.5 182.75,-12.5 182.75,-6.5 188.75,-0.5 194.75,-0.5"/>
<text xml:space="preserve" text-anchor="middle" x="231.25" y="-34.38" font-family="Helvetica,sans-Serif" font-size="10.00">ConfiguracionRuta</text>
<polyline fill="none" stroke="#36597c" stroke-width="1.2" points="279.75,-0.5 279.75,-76"/>
<text xml:space="preserve" text-anchor="start" x="287.75" y="-62.5" font-family="Helvetica,sans-Serif" font-size="10.00">+ id_cfg : int</text>
<text xml:space="preserve" text-anchor="start" x="287.75" y="-51.25" font-family="Helvetica,sans-Serif" font-size="10.00">+ id_depot : int</text>
<text xml:space="preserve" text-anchor="start" x="287.75" y="-40" font-family="Helvetica,sans-Serif" font-size="10.00">+ criterio : enum</text>
<text xml:space="preserve" text-anchor="start" x="287.75" y="-28.75" font-family="Helvetica,sans-Serif" font-size="10.00">+ hora_salida_min : int</text>
<text xml:space="preserve" text-anchor="start" x="287.75" y="-17.5" font-family="Helvetica,sans-Serif" font-size="10.00">+ orden_tipos : list</text>
<text xml:space="preserve" text-anchor="start" x="287.75" y="-6.25" font-family="Helvetica,sans-Serif" font-size="10.00">+ estadias_min : list</text>
</g>
<!-- depot&#45;&gt;cfg -->
<g id="edge4" class="edge">
<title>depot&#45;&gt;cfg</title>
<path fill="none" stroke="#4e6584" d="M98.92,-135.87C121.74,-120.87 153.55,-100.79 182.75,-85.25 185.61,-83.73 188.54,-82.21 191.5,-80.7"/>
<polygon fill="#4e6584" stroke="#4e6584" points="192.69,-83.23 198.59,-77.15 190.18,-78.22 192.69,-83.23"/>
<text xml:space="preserve" text-anchor="middle" x="157.62" y="-102.93" font-family="Helvetica,sans-Serif" font-size="9.00">1:N</text>
</g>
<!-- tramo -->
<g id="node7" class="node">
<title>tramo</title>
<path fill="#ffe6db" stroke="#36597c" stroke-width="1.2" d="M886.25,-139.62C886.25,-139.62 1037.5,-139.62 1037.5,-139.62 1043.5,-139.62 1049.5,-145.62 1049.5,-151.62 1049.5,-151.62 1049.5,-236.88 1049.5,-236.88 1049.5,-242.88 1043.5,-248.88 1037.5,-248.88 1037.5,-248.88 886.25,-248.88 886.25,-248.88 880.25,-248.88 874.25,-242.88 874.25,-236.88 874.25,-236.88 874.25,-151.62 874.25,-151.62 874.25,-145.62 880.25,-139.62 886.25,-139.62"/>
<text xml:space="preserve" text-anchor="middle" x="906.62" y="-190.38" font-family="Helvetica,sans-Serif" font-size="10.00">TramoRuta</text>
<polyline fill="none" stroke="#36597c" stroke-width="1.2" points="939,-139.62 939,-248.88"/>
<text xml:space="preserve" text-anchor="start" x="947" y="-235.38" font-family="Helvetica,sans-Serif" font-size="10.00">+ id_tramo : int</text>
<text xml:space="preserve" text-anchor="start" x="947" y="-224.12" font-family="Helvetica,sans-Serif" font-size="10.00">+ id_resultado : int</text>
<text xml:space="preserve" text-anchor="start" x="947" y="-212.88" font-family="Helvetica,sans-Serif" font-size="10.00">+ paso : int</text>
<text xml:space="preserve" text-anchor="start" x="947" y="-201.62" font-family="Helvetica,sans-Serif" font-size="10.00">+ origen_id : int</text>
<text xml:space="preserve" text-anchor="start" x="947" y="-190.38" font-family="Helvetica,sans-Serif" font-size="10.00">+ destino_id : int</text>
<text xml:space="preserve" text-anchor="start" x="947" y="-179.12" font-family="Helvetica,sans-Serif" font-size="10.00">+ distancia_km : float</text>
<text xml:space="preserve" text-anchor="start" x="947" y="-167.88" font-family="Helvetica,sans-Serif" font-size="10.00">+ tiempo_min : float</text>
<text xml:space="preserve" text-anchor="start" x="947" y="-156.62" font-family="Helvetica,sans-Serif" font-size="10.00">+ llegada : string</text>
<text xml:space="preserve" text-anchor="start" x="947" y="-145.38" font-family="Helvetica,sans-Serif" font-size="10.00">+ salida : string</text>
</g>
<!-- nodo&#45;&gt;tramo -->
<g id="edge7" class="edge">
<title>nodo&#45;&gt;tramo</title>
<path fill="none" stroke="#4e6584" d="M590.61,-230.6C669.11,-222.89 783.75,-211.64 864.63,-203.7"/>
<polygon fill="#4e6584" stroke="#4e6584" points="864.63,-206.51 872.32,-202.94 864.09,-200.94 864.63,-206.51"/>
<text xml:space="preserve" text-anchor="middle" x="716.12" y="-229.91" font-family="Helvetica,sans-Serif" font-size="9.00">origen/destino</text>
</g>
<!-- res -->
<g id="node6" class="node">
<title>res</title>
<path fill="#ffdccf" stroke="#36597c" stroke-width="1.2" d="M620.25,-102.5C620.25,-102.5 812,-102.5 812,-102.5 818,-102.5 824,-108.5 824,-114.5 824,-114.5 824,-166 824,-166 824,-172 818,-178 812,-178 812,-178 620.25,-178 620.25,-178 614.25,-178 608.25,-172 608.25,-166 608.25,-166 608.25,-114.5 608.25,-114.5 608.25,-108.5 614.25,-102.5 620.25,-102.5"/>
<text xml:space="preserve" text-anchor="middle" x="648.88" y="-136.38" font-family="Helvetica,sans-Serif" font-size="10.00">ResultadoRuta</text>
<polyline fill="none" stroke="#36597c" stroke-width="1.2" points="689.5,-102.5 689.5,-178"/>
<text xml:space="preserve" text-anchor="start" x="697.5" y="-164.5" font-family="Helvetica,sans-Serif" font-size="10.00">+ id_resultado : int</text>
<text xml:space="preserve" text-anchor="start" x="697.5" y="-153.25" font-family="Helvetica,sans-Serif" font-size="10.00">+ id_cfg : int</text>
<text xml:space="preserve" text-anchor="start" x="697.5" y="-142" font-family="Helvetica,sans-Serif" font-size="10.00">+ valor_objetivo : float</text>
<text xml:space="preserve" text-anchor="start" x="697.5" y="-130.75" font-family="Helvetica,sans-Serif" font-size="10.00">+ puntaje_total : float</text>
<text xml:space="preserve" text-anchor="start" x="697.5" y="-119.5" font-family="Helvetica,sans-Serif" font-size="10.00">+ distancia_total_km : float</text>
<text xml:space="preserve" text-anchor="start" x="697.5" y="-108.25" font-family="Helvetica,sans-Serif" font-size="10.00">+ tiempo_total_min : float</text>
</g>
<!-- cfg&#45;&gt;res -->
<g id="edge5" class="edge">
<title>cfg&#45;&gt;res</title>
<path fill="none" stroke="#4e6584" d="M395.17,-63.53C457.09,-78.38 535.44,-97.16 599.11,-112.43"/>
<polygon fill="#4e6584" stroke="#4e6584" points="598.09,-115.07 606.52,-114.21 599.39,-109.62 598.09,-115.07"/>
<text xml:space="preserve" text-anchor="middle" x="501.5" y="-111.31" font-family="Helvetica,sans-Serif" font-size="9.00">1:N</text>
</g>
<!-- res&#45;&gt;tramo -->
<g id="edge6" class="edge">
<title>res&#45;&gt;tramo</title>
<path fill="none" stroke="#4e6584" d="M824.39,-164.01C837.78,-166.98 851.4,-170 864.61,-172.92"/>
<polygon fill="#4e6584" stroke="#4e6584" points="863.78,-175.61 872.2,-174.61 864.99,-170.14 863.78,-175.61"/>
<text xml:space="preserve" text-anchor="middle" x="849.12" y="-171.68" font-family="Helvetica,sans-Serif" font-size="9.00">1:N</text>
</g>
</g>
</svg>
