<?xml version="1.0" encoding="UTF-8" standalone="no"?>
<!DOCTYPE svg PUBLIC "-//W3C//DTD SVG 1.1//EN"
 "http://www.w3.org/Graphics/SVG/1.1/DTD/svg11.dtd">
<!-- Generated by graphviz version 14.1.5 (20260411.2331)
 -->
<!-- Title: DFD_Level_1 Pages: 1 -->
<svg width="1310pt" height="212pt"
 viewBox="0.00 0.00 1310.00 212.00" xmlns="http://www.w3.org/2000/svg" xmlns:xlink="http://www.w3.org/1999/xlink">
<g id="graph0" class="graph" transform="scale(1 1) rotate(0) translate(21.6 190.57)">
<title>DFD_Level_1</title>
<polygon fill="#f8fbff" stroke="none" points="-21.6,21.6 -21.6,-190.57 1288.85,-190.57 1288.85,21.6 -21.6,21.6"/>
<!-- user -->
<g id="node1" class="node">
<title>user</title>
<path fill="#d7f0ff" stroke="#355c7d" stroke-width="1.4" d="M42,-48C42,-48 12,-48 12,-48 6,-48 0,-42 0,-36 0,-36 0,-24 0,-24 0,-18 6,-12 12,-12 12,-12 42,-12 42,-12 48,-12 54,-18 54,-24 54,-24 54,-36 54,-36 54,-42 48,-48 42,-48"/>
<text xml:space="preserve" text-anchor="middle" x="27" y="-26.12" font-family="Helvetica,sans-Serif" font-size="10.00">Usuario</text>
</g>
<!-- p1 -->
<g id="node2" class="node">
<title>p1</title>
<path fill="#9ad9ff" stroke="#355c7d" stroke-width="1.4" d="M267.25,-91C267.25,-91 167.25,-91 167.25,-91 161.25,-91 155.25,-85 155.25,-79 155.25,-79 155.25,-67 155.25,-67 155.25,-61 161.25,-55 167.25,-55 167.25,-55 267.25,-55 267.25,-55 273.25,-55 279.25,-61 279.25,-67 279.25,-67 279.25,-79 279.25,-79 279.25,-85 273.25,-91 267.25,-91"/>
<text xml:space="preserve" text-anchor="middle" x="217.25" y="-74.75" font-family="Helvetica,sans-Serif" font-size="10.00">P1</text>
<text xml:space="preserve" text-anchor="middle" x="217.25" y="-63.5" font-family="Helvetica,sans-Serif" font-size="10.00">Gestion de configuracion</text>
</g>
<!-- user&#45;&gt;p1 -->
<g id="edge1" class="edge">
<title>user&#45;&gt;p1</title>
<path fill="none" stroke="#4e6380" stroke-width="1.1" d="M54.57,-36.07C78.19,-41.46 113.79,-49.6 145.58,-56.86"/>
<polygon fill="#4e6380" stroke="#4e6380" stroke-width="1.1" points="144.82,-59.56 153.25,-58.61 146.07,-54.1 144.82,-59.56"/>
<text xml:space="preserve" text-anchor="middle" x="104.62" y="-53.99" font-family="Helvetica,sans-Serif" font-size="9.00">Parametros</text>
</g>
<!-- p2 -->
<g id="node3" class="node">
<title>p2</title>
<path fill="#93e1d8" stroke="#355c7d" stroke-width="1.4" d="M528.5,-94C528.5,-94 415,-94 415,-94 409,-94 403,-88 403,-82 403,-82 403,-70 403,-70 403,-64 409,-58 415,-58 415,-58 528.5,-58 528.5,-58 534.5,-58 540.5,-64 540.5,-70 540.5,-70 540.5,-82 540.5,-82 540.5,-88 534.5,-94 528.5,-94"/>
<text xml:space="preserve" text-anchor="middle" x="471.75" y="-77.75" font-family="Helvetica,sans-Serif" font-size="10.00">P2</text>
<text xml:space="preserve" text-anchor="middle" x="471.75" y="-66.5" font-family="Helvetica,sans-Serif" font-size="10.00">Carga y validacion de datos</text>
</g>
<!-- p1&#45;&gt;p2 -->
<g id="edge2" class="edge">
<title>p1&#45;&gt;p2</title>
<path fill="none" stroke="#4e6380" stroke-width="1.1" d="M279.7,-73.73C313.73,-74.13 356.39,-74.64 392.76,-75.07"/>
<polygon fill="#4e6380" stroke="#4e6380" stroke-width="1.1" points="392.65,-77.87 400.68,-75.17 392.72,-72.27 392.65,-77.87"/>
<text xml:space="preserve" text-anchor="middle" x="341.12" y="-76.06" font-family="Helvetica,sans-Serif" font-size="9.00">depot + reglas</text>
</g>
<!-- p3 -->
<g id="node4" class="node">
<title>p3</title>
<path fill="#ffcf86" stroke="#355c7d" stroke-width="1.4" d="M805.5,-94C805.5,-94 702.5,-94 702.5,-94 696.5,-94 690.5,-88 690.5,-82 690.5,-82 690.5,-70 690.5,-70 690.5,-64 696.5,-58 702.5,-58 702.5,-58 805.5,-58 805.5,-58 811.5,-58 817.5,-64 817.5,-70 817.5,-70 817.5,-82 817.5,-82 817.5,-88 811.5,-94 805.5,-94"/>
<text xml:space="preserve" text-anchor="middle" x="754" y="-77.75" font-family="Helvetica,sans-Serif" font-size="10.00">P3</text>
<text xml:space="preserve" text-anchor="middle" x="754" y="-66.5" font-family="Helvetica,sans-Serif" font-size="10.00">Optimizacion de recorrido</text>
</g>
<!-- p2&#45;&gt;p3 -->
<g id="edge4" class="edge">
<title>p2&#45;&gt;p3</title>
<path fill="none" stroke="#4e6380" stroke-width="1.1" d="M540.95,-76C583.28,-76 637.61,-76 680.69,-76"/>
<polygon fill="#4e6380" stroke="#4e6380" stroke-width="1.1" points="680.59,-78.8 688.59,-76 680.59,-73.2 680.59,-78.8"/>
<text xml:space="preserve" text-anchor="middle" x="615.5" y="-77.2" font-family="Helvetica,sans-Serif" font-size="9.00">datos validados</text>
</g>
<!-- d2 -->
<g id="node7" class="node">
<title>d2</title>
<path fill="#eaf0ff" stroke="#355c7d" stroke-width="1.4" d="M1052.5,-93.16C1052.5,-95.26 1026.06,-96.97 993.5,-96.97 960.94,-96.97 934.5,-95.26 934.5,-93.16 934.5,-93.16 934.5,-58.84 934.5,-58.84 934.5,-56.74 960.94,-55.03 993.5,-55.03 1026.06,-55.03 1052.5,-56.74 1052.5,-58.84 1052.5,-58.84 1052.5,-93.16 1052.5,-93.16"/>
<path fill="none" stroke="#355c7d" stroke-width="1.4" d="M1052.5,-93.16C1052.5,-91.05 1026.06,-89.34 993.5,-89.34 960.94,-89.34 934.5,-91.05 934.5,-93.16"/>
<text xml:space="preserve" text-anchor="middle" x="993.5" y="-77.75" font-family="Helvetica,sans-Serif" font-size="10.00">D2</text>
<text xml:space="preserve" text-anchor="middle" x="993.5" y="-66.5" font-family="Helvetica,sans-Serif" font-size="10.00">Resultado optimizacion</text>
</g>
<!-- p3&#45;&gt;d2 -->
<g id="edge5" class="edge">
<title>p3&#45;&gt;d2</title>
<path fill="none" stroke="#4e6380" stroke-width="1.1" d="M818.02,-76C850.93,-76 891.23,-76 924.8,-76"/>
<polygon fill="#4e6380" stroke="#4e6380" stroke-width="1.1" points="924.42,-78.8 932.42,-76 924.42,-73.2 924.42,-78.8"/>
<text xml:space="preserve" text-anchor="middle" x="876" y="-77.2" font-family="Helvetica,sans-Serif" font-size="9.00">ruta + schedule</text>
</g>
<!-- p4 -->
<g id="node5" class="node">
<title>p4</title>
<path fill="#c7b8ff" stroke="#355c7d" stroke-width="1.4" d="M1255.25,-48C1255.25,-48 1156.75,-48 1156.75,-48 1150.75,-48 1144.75,-42 1144.75,-36 1144.75,-36 1144.75,-24 1144.75,-24 1144.75,-18 1150.75,-12 1156.75,-12 1156.75,-12 1255.25,-12 1255.25,-12 1261.25,-12 1267.25,-18 1267.25,-24 1267.25,-24 1267.25,-36 1267.25,-36 1267.25,-42 1261.25,-48 1255.25,-48"/>
<text xml:space="preserve" text-anchor="middle" x="1206" y="-31.75" font-family="Helvetica,sans-Serif" font-size="10.00">P4</text>
<text xml:space="preserve" text-anchor="middle" x="1206" y="-20.5" font-family="Helvetica,sans-Serif" font-size="10.00">Visualizacion y exportes</text>
</g>
<!-- p4&#45;&gt;user -->
<g id="edge7" class="edge">
<title>p4&#45;&gt;user</title>
<path fill="none" stroke="#4e6380" stroke-width="1.1" d="M1144.07,-16.67C1102.22,-8.65 1045.26,0 994.5,0 216.25,0 216.25,0 216.25,0 162.55,0 101.3,-12.05 63.64,-20.88"/>
<polygon fill="#4e6380" stroke="#4e6380" stroke-width="1.1" points="63.34,-18.07 56.22,-22.65 64.65,-23.52 63.34,-18.07"/>
<text xml:space="preserve" text-anchor="middle" x="615.5" y="-1.2" font-family="Helvetica,sans-Serif" font-size="9.00">mapa, tablas, CSV/PDF</text>
</g>
<!-- d1 -->
<g id="node6" class="node">
<title>d1</title>
<path fill="#eaf0ff" stroke="#355c7d" stroke-width="1.4" d="M249.25,-165.16C249.25,-167.26 234.91,-168.97 217.25,-168.97 199.59,-168.97 185.25,-167.26 185.25,-165.16 185.25,-165.16 185.25,-130.84 185.25,-130.84 185.25,-128.74 199.59,-127.03 217.25,-127.03 234.91,-127.03 249.25,-128.74 249.25,-130.84 249.25,-130.84 249.25,-165.16 249.25,-165.16"/>
<path fill="none" stroke="#355c7d" stroke-width="1.4" d="M249.25,-165.16C249.25,-163.05 234.91,-161.34 217.25,-161.34 199.59,-161.34 185.25,-163.05 185.25,-165.16"/>
<text xml:space="preserve" text-anchor="middle" x="217.25" y="-149.75" font-family="Helvetica,sans-Serif" font-size="10.00">D1</text>
<text xml:space="preserve" text-anchor="middle" x="217.25" y="-138.5" font-family="Helvetica,sans-Serif" font-size="10.00">Data depot</text>
</g>
<!-- d1&#45;&gt;p2 -->
<g id="edge3" class="edge">
<title>d1&#45;&gt;p2</title>
<path fill="none" stroke="#4e6380" stroke-width="1.1" d="M249.72,-139.03C286.11,-128.65 347.26,-111.21 396.02,-97.31"/>
<polygon fill="#4e6380" stroke="#4e6380" stroke-width="1.1" points="396.76,-100.01 403.69,-95.12 395.23,-94.62 396.76,-100.01"/>
<text xml:space="preserve" text-anchor="middle" x="341.12" y="-123.86" font-family="Helvetica,sans-Serif" font-size="9.00">nodos + matrices</text>
</g>
<!-- d2&#45;&gt;p4 -->
<g id="edge6" class="edge">
<title>d2&#45;&gt;p4</title>
<path fill="none" stroke="#4e6380" stroke-width="1.1" d="M1053.14,-63.19C1078.49,-57.65 1108.37,-51.12 1134.89,-45.32"/>
<polygon fill="#4e6380" stroke="#4e6380" stroke-width="1.1" points="1135.27,-48.1 1142.49,-43.66 1134.07,-42.63 1135.27,-48.1"/>
<text xml:space="preserve" text-anchor="middle" x="1098.62" y="-58.32" font-family="Helvetica,sans-Serif" font-size="9.00">resultado</text>
</g>
</g>
</svg>
